<svg xmlns="http://www.w3.org/2000/svg" width="120" height="120" viewBox="0 0 120 120"><g fill="none" fill-rule="evenodd"><rect width="120" height="120" fill="#D8D8D8" opacity="0"/><g fill="#3B2E87" fill-rule="nonzero" transform="translate(28 9)"><path d="M15.6048575,0 C19.6932897,0 22.9518916,1.05558157 25.3806632,3.16674471 C27.8094348,5.27790784 29.1756189,8.0876926 29.4792153,11.596099 L20.8570761,11.596099 C20.8570761,10.8821791 20.5838393,10.0968672 20.0373657,9.2401633 C19.1063366,7.85311892 17.699673,7.15959673 15.8173751,7.15959673 C13.004048,7.15959673 11.0003114,8.75061822 9.80616534,11.9326612 C9.15849292,13.6868644 8.71321812,16.2773738 8.47034096,19.7041893 C9.54304842,18.4191335 10.7877939,17.4808387 12.2045773,16.8893051 C13.6213607,16.2977715 15.2405418,16.0020047 17.0621205,16.0020047 C20.9683948,16.0020047 24.1713374,17.3380548 26.6709482,20.010155 C28.5932388,22.0650961 29.7763741,24.5603565 30.220354,27.4959361 C28.5396485,27.9760464 26.7264369,28.7733573 24.7811565,29.9773182 C23.8771312,30.5365338 22.7179121,31.3565897 21.5804991,32.313726 C21.625099,31.8921053 21.6464269,31.4515948 21.6464269,30.9943226 C21.6464269,28.4038132 21.0189942,26.4201358 19.7641289,25.0432903 C18.5092636,23.6664447 16.9710416,22.978022 15.1494629,22.978022 C13.6719601,22.978022 12.3664954,23.4267716 11.2330687,24.3242709 C9.53292854,25.6501222 8.68285848,27.7918819 8.68285848,30.7495501 C8.68285848,33.1360823 9.32041102,35.0840637 10.5955161,36.5934944 C11.8706212,38.102925 13.4898023,38.8576404 15.4530593,38.8576404 C15.7372501,38.8576404 16.0124873,38.8417102 16.2787711,38.80985 C15.3608888,40.7006386 14.6656882,43.0381815 14.256027,45.9245113 C9.25446356,45.6387411 5.52445017,43.3133049 3.06632415,38.9494301 C1.02210805,35.2982397 0,30.5863684 0,24.813816 C0,21.4277959 0.141678343,18.6741049 0.42503503,16.5527429 C0.931029114,12.7791662 1.91265764,9.63791867 3.3699206,7.12900016 C4.62478593,4.98724046 6.2692667,3.26363384 8.30336291,1.9581803 C10.3374591,0.652726767 12.7712907,0 15.6048575,0 Z M50.1844932,0 C54.2729254,0 57.5315273,1.05558157 59.9602989,3.16674471 C62.3890705,5.27790784 63.7552546,8.0876926 64.058851,11.596099 L55.4367118,11.596099 C55.4367118,10.8821791 55.163475,10.0968672 54.6170014,9.2401633 C53.6859723,7.85311892 52.2793087,7.15959673 50.3970107,7.15959673 C47.5836836,7.15959673 45.5799471,8.75061822 44.385801,11.9326612 C43.7381286,13.6868644 43.2928538,16.2773738 43.0499766,19.7041893 C44.1226841,18.4191335 45.3674296,17.4808387 46.784213,16.8893051 C48.2009964,16.2977715 49.8201775,16.0020047 51.6417562,16.0020047 C55.5480305,16.0020047 58.7509731,17.3380548 61.2505838,20.010155 C63.7501946,22.6822552 65,26.0988718 65,30.260005 C65,34.4007404 63.7754943,38.0519308 61.326483,41.213576 C59.3514625,43.7633046 56.4944963,45.2849109 52.7555844,45.778395 C52.8746774,42.7564605 52.2972826,40.4542741 51.4328749,38.7120787 C52.7056577,38.4349097 53.7517317,37.7538042 54.5714619,36.6699858 C55.674529,35.2115494 56.2260626,33.3196617 56.2260626,30.9943226 C56.2260626,28.4038132 55.5986299,26.4201358 54.3437646,25.0432903 C53.0888993,23.6664447 51.5506773,22.978022 49.7290986,22.978022 C48.2515958,22.978022 46.9461311,23.4267716 45.8127043,24.3242709 C44.1555763,25.6165793 43.3060503,27.6840347 43.2641264,30.5266373 C41.3819138,28.8121351 38.496215,27.0083144 34.6273825,26.9056937 C34.595264,26.2251958 34.5796357,25.527615 34.5796357,24.813816 C34.5796357,21.4277959 34.721314,18.6741049 35.0046707,16.5527429 C35.5106648,12.7791662 36.4922933,9.63791867 37.9495563,7.12900016 C39.2044216,4.98724046 40.8489024,3.26363384 42.8829986,1.9581803 C44.9170948,0.652726767 47.3509264,0 50.1844932,0 Z M41.0301873,39.7912088 C42.710352,41.4785649 44.0315719,43.3631952 45.0690929,45.2488823 C42.8260549,44.5290677 40.9278652,43.2595663 39.3726221,41.4404286 C39.9798967,40.8877347 40.531178,40.334274 41.0301873,39.7912088 Z"/><path d="M22.0154079,71.8360593 L29.4437438,78.0355788 C29.5255117,78.102602 29.6087448,78.1666486 29.6939524,78.227219 C29.415664,78.4903526 29.2102822,78.8329358 29.1142386,79.2335908 L29.1142386,79.2335908 L28.2824753,82.7035143 C27.9731819,83.993902 28.9332143,85.2137598 30.2442751,85.2311368 L30.2442751,85.2311368 L27.3259733,101.999339 L8.18962997,101.999339 C6.14915132,101.999339 4.44444444,100.458261 4.44444444,98.5264795 L4.44444444,98.5264795 L4.44444444,88.7106055 C4.44444444,81.2345013 9.83860604,74.7171067 17.4945303,72.9020025 L17.4945303,72.9020025 L22.0154079,71.8360593 Z M42.5702263,71.8356907 L47.029573,72.9016339 C54.6851443,74.7176405 60.0034444,81.2347809 59.9999983,88.7112664 L59.9999983,88.7112664 L59.9999983,98.5271405 C59.9999983,100.460447 58.4481082,102 56.4080078,102 L56.4080078,102 L37.2716644,102 L34.3533626,85.2317977 C35.6655078,85.2133683 36.6254393,83.9915634 36.3146581,82.7031584 L36.3146581,82.7031584 L35.4847483,79.2332222 C35.387232,78.8330502 35.1818476,78.489984 34.9020841,78.2268504 C34.9867898,78.1662749 35.0675692,78.1022347 35.1493296,78.0352102 L35.1493296,78.0352102 L42.5702263,71.8356907 Z M25.7178371,33.4230859 C35.4530196,27.4348384 41.2970737,33.3541163 43.0855133,35.6790756 L43.2655122,35.9190621 C43.5383415,36.2924544 43.6752596,36.526595 43.6752596,36.526595 C43.6752596,36.526595 51.8177567,38.9015714 48.8655373,51.0311599 C49.9289617,51.7739278 50.6495281,53.2326458 50.4175518,56.0635271 C50.13625,59.5225328 48.4094777,61.0819387 46.5378306,61.4855805 C43.8838088,68.0337331 38.6235525,73.4369878 32.397968,73.4374843 C26.1862532,73.4374843 20.9373447,68.059153 18.2786577,61.532353 C16.3095447,61.2175282 14.4379607,59.6784835 14.1409609,56.062129 C13.8577677,52.6031232 14.9969709,51.1911397 16.4469804,50.6335935 C16.686295,44.2921042 18.2152355,40.3768122 20.4611112,37.9679004 C21.859803,36.1309351 24.2076837,34.3515077 25.7178371,33.4230859 Z M39.6370852,41.8465878 C36.2541499,45.5294152 30.0405438,49.7753686 19.5349094,49.3126511 C19.4669405,50.2723774 19.4314783,51.3070542 19.4314783,52.4226423 C19.4314783,60.5630942 25.2157555,70.3944744 32.3983463,70.3944744 C39.5823277,70.3944744 45.3646898,60.5634247 45.3637048,52.4211934 C45.3637048,52.3323256 45.3622272,52.2469276 45.3622272,52.1595469 C44.5106303,49.1383981 42.8445063,45.0688076 39.6370852,41.8465878 Z"/></g></g></svg>