<svg xmlns="http://www.w3.org/2000/svg" width="120" height="120" viewBox="0 0 120 120"><g fill="none" fill-rule="evenodd"><rect width="120" height="120" fill="#D8D8D8" opacity="0"/><path fill="#3B2E87" fill-rule="nonzero" d="M34.8568513,85.1428571 L48.5717784,85.1428571 L48.5717784,94.284898 L34.8568513,94.284898 L34.8568513,108 L25.7149271,108 L25.7149271,94.284898 L12,94.284898 L12,85.1428571 L25.7149271,85.1428571 L25.7149271,71.4277551 L34.8568513,71.4277551 L34.8568513,85.1428571 Z M62.2862974,12 C37.1429446,12 16.5725947,32.5706122 16.5725947,57.7142857 L25.7145189,57.7142857 C25.7145189,37.5995918 42.1714519,21.1420408 62.2862974,21.1420408 C82.4011428,21.1420408 98.8580758,37.5991837 98.8580758,57.7142857 C98.8580758,77.8293878 82.4011428,94.2865306 62.2862974,94.2865306 L62.2862974,103.428571 C87.4296501,103.428571 108,82.8579592 108,57.7142857 C108,32.5706122 87.4280175,12 62.2862974,12 Z M85.1431487,64.5714286 C87.657484,64.5714286 89.7141108,62.5146531 89.7141108,60.0004082 C89.7141108,57.4860408 87.6573615,55.4293878 85.1431487,55.4293878 L66.8572595,55.4293878 L66.8572595,32.5706122 C66.8572595,30.0562449 64.8005102,27.9995918 62.2862974,27.9995918 C59.7719621,27.9995918 57.7153353,30.0563673 57.7153353,32.5706122 L57.7153353,59.9987755 C57.7153353,62.5131429 59.7720845,64.5697959 62.2862974,64.5697959 L85.1431487,64.5714286 Z"/></g></svg>