<svg xmlns="http://www.w3.org/2000/svg" width="120" height="120" viewBox="0 0 120 120"><g fill="none" fill-rule="evenodd"><rect width="120" height="120" fill="#D8D8D8" opacity="0"/><path fill="#3B2E87" fill-rule="nonzero" d="M108.034465,16.6523065 C106.082111,15.4426374 104.022672,16.42868 102.360483,17.6713769 C101.686648,18.1754039 101.111477,18.8107399 100.516919,19.4155852 C98.977813,20.9928978 97.519625,22.6565641 95.9096831,24.1594068 C92.0369277,27.7798914 87.6069428,30.6237989 82.6767253,32.5644828 C73.3366013,36.2426523 63.2553038,37.0847212 53.4896473,39.0388504 C49.5722013,39.8224322 45.7350688,40.9101173 42.1408202,42.733935 C41.4653009,43.077854 41.0841137,43.3370672 41.9595015,43.8716065 C47.8603907,45.2659539 53.8010049,46.3943437 59.8856223,46.5739041 C61.2788254,46.6154133 62.2799169,47.2117773 62.5936149,48.7391252 C63.3399698,52.3750069 63.5896112,56.2251467 63.6393754,59.9302069 C63.6747954,62.3833319 63.3323919,68.2565625 63.3323919,68.2565625 C63.6368494,68.1845584 64.0973139,68.0236111 64.6707788,67.8973983 C67.8189848,67.208693 72.5956998,68.886824 74.6197316,71.4272353 C76.688454,74.0286928 77.2879992,77.9744681 76.0146187,81.064729 C75.8914907,81.3612205 75.1198348,82.3455499 75.4175348,82.5996887 C75.9842637,83.0808586 77.7064718,81.6119545 78.2064886,81.3002177 C79.6899366,80.3650071 81.174205,79.4518296 82.5470923,78.3539521 C84.7811915,76.5648537 87.0690491,75.1756459 89.8361974,78.1896131 C89.5174043,76.3556246 89.0527298,53.8860664 89.1724877,50.6136428 C89.2500767,48.5636396 89.2197151,47.9156824 89.9778904,45.958734 C90.6888383,44.1247455 92.1284161,42.6320952 93.5721391,41.3539199 C95.3684646,39.7630536 97.1640129,38.1730114 98.9483993,36.5710635 C102.204554,33.6519055 105.018767,30.4235045 107.453651,26.782635 C108.546628,25.1519531 109.812538,23.2799056 109.987846,21.2646217 C110.108444,19.8508002 109.322453,17.4491796 108.03465,16.6528681 L108.034465,16.6523065 Z M79.0999859,82.640762 C77.4183447,83.9046462 75.416356,84.9941312 73.4141298,85.6369055 C65.8333481,88.0631398 57.8350222,85.1337243 50.9522347,81.9645913 C50.1181609,81.580011 49.2621736,81.3987157 48.5259873,81.8053333 C47.7138486,82.2593956 47.9912975,83.2318628 48.0790163,83.9908526 C48.2122656,85.128524 48.7351481,86.1230242 49.5447608,86.9336484 C52.4358338,89.8163739 55.7146573,92.1239855 59.4742829,93.7283189 C61.2149502,94.4712393 60.6575049,97.573254 60.6701564,99.0364113 C60.6920829,102.338545 60.7671415,105.648919 60.8658128,108.958643 C62.6722639,109.115359 74.1527448,108.824799 77.9158247,108.119154 C77.9411257,103.817511 78.2008732,97.6192068 78.1165417,93.3201659 C78.074375,91.1972976 78.6714611,91.3082868 80.1026189,90.371298 C82.0676245,89.0828435 83.526525,88.0721439 84.7757034,86.8820139 C86.8064712,84.9488985 88.2443002,82.9047939 88.0158815,79.9340231 C87.6523977,75.1765393 80.4426562,81.6265536 79.0991309,82.6404411 L79.0999859,82.640762 Z M39.2022715,38.8609815 C44.2944116,38.8609815 48.4225728,34.7135261 48.4225728,29.5986564 C48.4225728,24.4837866 44.2952752,20.3363312 39.2022715,20.3363312 C34.1075406,20.3363312 29.9793793,24.4837866 29.9793793,29.5986564 C29.9793793,34.7135261 34.106677,38.8609815 39.2022715,38.8609815 Z M70.0819797,32.6008719 C75.5864826,32.6008719 80.044534,28.1205358 80.044534,22.5931975 C80.044534,17.0667267 74.7971642,12 69.2952521,12 C63.79334,12 59.4812347,16.9285866 60.1213685,22.5931975 C60.7378616,28.0858381 64.5826584,32.6008719 70.0821956,32.6008719 L70.0819797,32.6008719 Z M67.2703567,84.0922088 C71.040993,83.8067337 74.1157941,80.9477328 74.1157941,77.0704854 C74.1157941,73.1932381 71.053515,70.0487621 67.2703567,70.0487621 C63.4947548,70.0487621 60.2798367,71.6709864 59.9704567,76.3784838 C59.7166054,80.2481411 62.4886761,84.4574017 67.2703567,84.0922088 L67.2703567,84.0922088 Z M46.8132786,81.2747583 C46.9853224,80.5835157 47.7333657,79.6101811 49.0752286,79.7685976 C44.8905024,73.3686131 43.2527099,58.816195 44.8727989,57.8071435 C46.5021499,56.7906103 55.8902246,58.0282326 60.0581108,55.222601 C61.5525263,54.2162386 61.9514171,51.2056956 61.1654235,49.8162709 C60.3212241,48.3228183 58.6884404,48.2482617 57.1426199,48.1296824 C54.725656,47.9424711 52.336327,47.5638068 49.9564974,47.1165322 C42.6589723,45.7467551 35.5343804,43.7586656 29.487545,39.240162 C24.6130288,35.5966901 21.920149,30.5039402 19.6651077,25.0663821 C18.3655174,21.932966 17.1587627,18.7561778 15.5041302,15.785407 C14.8851111,14.6731516 13.8849048,14.2529845 12.6452258,14.3961558 C11.4206811,14.5384704 10.7890105,15.338154 10.3858666,16.4258391 C9.9582831,17.5770643 9.96504067,18.776606 10.0375604,19.9600133 C10.1885197,22.522436 10.5317696,25.0740156 11.0757214,27.5830906 C12.0177435,31.9389489 13.5434209,36.1423543 15.5573055,40.1135022 C17.1242408,43.2046306 19.4585593,45.9314334 20.5348045,49.280192 C26.3707088,67.4092889 24.3104064,88.0808573 23.6864648,93.7083851 C23.4275615,96.0277072 37.341069,102.166809 40.1604643,103.463634 C40.9835705,103.843985 46.2148561,105.738066 46.2325596,106.006756 C49.4170363,104.015197 55.6232035,98.3082113 57.5343213,94.9850423 C55.103756,93.1756024 52.484281,91.6735838 50.1061786,89.7439598 C46.1880849,86.5595815 46.4974649,82.5578563 46.8137536,81.2744764 L46.8132786,81.2747583 Z"/></g></svg>