<svg xmlns="http://www.w3.org/2000/svg" width="120" height="120" viewBox="0 0 120 120"><g fill="none" fill-rule="evenodd"><rect width="120" height="120" fill="#D8D8D8" opacity="0"/><path fill="#3B2E87" fill-rule="nonzero" d="M69.0301873,48.7912088 C71.507801,51.2794271 73.2048819,54.1966223 74.3627141,56.9136026 C70.7882402,56.6019885 67.7879831,55.4212722 65.3599138,53.3730429 C65.0862557,53.142195 64.8241876,52.9021145 64.5737095,52.6528012 C66.3814662,51.4144388 67.8516181,50.0738301 69.0301873,48.7912088 Z M91.1573276,9 L91.1573276,16.90742 L71.987069,16.90742 L70.3060345,27.2654867 C71.7284483,26.3287951 72.8383621,25.7079646 73.6357759,25.4029952 C74.9719828,24.9019741 76.5991379,24.6514636 78.5172414,24.6514636 C82.3965517,24.6514636 85.7801724,25.9693669 88.6681034,28.6051736 C91.5560345,31.2409803 93,35.0748809 93,40.1068754 C93,44.4853642 91.6099138,48.3955071 88.8297414,51.8373043 C86.8135579,54.3332986 84.0719726,55.9242443 80.6049854,56.6101413 C81.0224276,53.1948932 80.6112504,50.5801734 79.8235099,48.5905806 C80.5123715,48.197366 81.1057593,47.6617404 81.6045259,46.9850238 C82.8006466,45.3621511 83.3987069,43.3199455 83.3987069,40.8584071 C83.3987069,38.4404357 82.8383621,36.3982301 81.7176724,34.7317903 C80.5969828,33.0653506 78.8512931,32.2321307 76.4806034,32.2321307 C75.3599138,32.2321307 74.3900862,32.3737236 73.5711207,32.6569095 C72.1271552,33.1797141 71.0387931,34.149081 70.3060345,35.5650102 L62.0301724,35.1729067 L65.3275862,9 L91.1573276,9 Z M60.2327586,9 L60.2327586,16.2865895 C58.8534483,17.6589517 56.9353448,20.0987066 54.4784483,23.6058543 C52.0215517,27.1347856 49.9633621,30.7726344 48.3038793,34.519401 C46.9892241,37.460177 45.8038793,41.0544588 44.7478448,45.3022464 C44.4936278,46.3248077 44.2700093,47.3031865 44.0769895,48.237383 C43.1760622,50.2346186 42.5099815,52.7053094 42.1475749,55.7577174 L33.5948276,55.758339 C33.875,47.2627638 36.6336207,38.4295439 41.8706897,29.2586794 C45.2543103,23.573179 48.0883621,19.6085773 50.3728448,17.3648741 L27,17.3648741 L27.1293103,9 L60.2327586,9 Z"/><path fill="#3B2E87" fill-rule="nonzero" d="M50.0154079,80.8360593 L57.4437438,87.0355788 C57.5255117,87.102602 57.6087448,87.1666486 57.6939524,87.227219 C57.415664,87.4903526 57.2102822,87.8329358 57.1142386,88.2335908 L57.1142386,88.2335908 L56.2824753,91.7035143 C55.9731819,92.993902 56.9332143,94.2137598 58.2442751,94.2311368 L58.2442751,94.2311368 L55.3259733,110.999339 L36.18963,110.999339 C34.1491513,110.999339 32.4444444,109.458261 32.4444444,107.52648 L32.4444444,107.52648 L32.4444444,97.7106055 C32.4444444,90.2345013 37.838606,83.7171067 45.4945303,81.9020025 L45.4945303,81.9020025 L50.0154079,80.8360593 Z M70.5702263,80.8356907 L75.029573,81.9016339 C82.6851443,83.7176405 88.0034444,90.2347809 87.9999983,97.7112664 L87.9999983,97.7112664 L87.9999983,107.52714 C87.9999983,109.460447 86.4481082,111 84.4080078,111 L84.4080078,111 L65.2716644,111 L62.3533626,94.2317977 C63.6655078,94.2133683 64.6254393,92.9915634 64.3146581,91.7031584 L64.3146581,91.7031584 L63.4847483,88.2332222 C63.387232,87.8330502 63.1818476,87.489984 62.9020841,87.2268504 C62.9867898,87.1662749 63.0675692,87.1022347 63.1493296,87.0352102 L63.1493296,87.0352102 L70.5702263,80.8356907 Z M53.7178371,42.4230859 C63.4530196,36.4348384 69.2970737,42.3541163 71.0855133,44.6790756 L71.2655122,44.9190621 C71.5383415,45.2924544 71.6752596,45.526595 71.6752596,45.526595 C71.6752596,45.526595 79.8177567,47.9015714 76.8655373,60.0311599 C77.9289617,60.7739278 78.6495281,62.2326458 78.4175518,65.0635271 C78.13625,68.5225328 76.4094777,70.0819387 74.5378306,70.4855805 C71.8838088,77.0337331 66.6235525,82.4369878 60.397968,82.4374843 C54.1862532,82.4374843 48.9373447,77.059153 46.2786577,70.532353 C44.3095447,70.2175282 42.4379607,68.6784835 42.1409609,65.062129 C41.8577677,61.6031232 42.9969709,60.1911397 44.4469804,59.6335935 C44.686295,53.2921042 46.2152355,49.3768122 48.4611112,46.9679004 C49.859803,45.1309351 52.2076837,43.3515077 53.7178371,42.4230859 Z M67.6370852,50.8465878 C64.2541499,54.5294152 58.0405438,58.7753686 47.5349094,58.3126511 C47.4669405,59.2723774 47.4314783,60.3070542 47.4314783,61.4226423 C47.4314783,69.5630942 53.2157555,79.3944744 60.3983463,79.3944744 C67.5823277,79.3944744 73.3646898,69.5634247 73.3637048,61.4211934 C73.3637048,61.3323256 73.3622272,61.2469276 73.3622272,61.1595469 C72.5106303,58.1383981 70.8445063,54.0688076 67.6370852,50.8465878 Z"/></g></svg>