<svg xmlns="http://www.w3.org/2000/svg" width="120" height="120" viewBox="0 0 120 120"><g fill="none" fill-rule="evenodd"><rect width="120" height="120" fill="#D8D8D8" opacity="0"/><path fill="#3B2E87" fill-rule="nonzero" d="M60.8571186,47.6217299 C63.5636955,50.3382861 63.9796458,54.6264364 61.8621108,57.8191073 L54.2592108,68.3023613 C53.272841,69.6610968 52.7460673,71.2715286 52.7460673,72.9543547 C52.7460673,77.3156894 56.5791072,80.8183545 61.025508,80.1580314 L71.8909663,79.2995905 L86.5797286,79.2947175 C87.6624008,79.2947175 88.6099306,80.0126526 88.8995629,81.0554684 C89.1989518,82.0982634 88.7692864,83.2092113 87.8508835,83.7817964 L68.710956,95.7058689 C65.7477245,98.3055795 58.0679731,99 54.3167561,99 C52.3304402,99 50.7695495,98.8396612 49.6675298,98.5245378 L19.4876691,93.880657 C17.3220365,95.0451323 10.0891884,98.7025714 4.41723459,98.7025714 L4.41698602,98.7025714 C3.08267219,98.7025714 2,97.6156786 2,96.2764451 L2,62.3184529 C2,61.644366 2.28482651,60.9987005 2.7735681,60.5382208 C3.27119627,60.0826061 3.89021233,59.8495178 4.60553081,59.9023063 C7.31958558,60.1145657 21.0081787,61.3711601 25.3333948,65.3339715 C28.4355433,62.1331589 32.6436935,60.1765907 37.222318,59.9192094 L49.4746225,47.6217299 C52.5147053,44.5704381 57.8220073,44.5704381 60.8571186,47.6217299 Z M52.8976282,51.0583434 L39.9631901,64.0404715 C39.5084412,64.4871461 38.8942724,64.7446014 38.2518074,64.7446014 C33.2875401,64.7446014 28.8218747,67.4709294 26.5310409,71.8663614 L23.8308904,82.1490292 C23.1801,85.1118825 22.530111,87.6090624 22.0411868,89.3712895 L50.7022268,93.7994016 C51.2338477,93.9301585 52.1716831,94.1534936 54.3175557,94.1534936 C59.378146,94.1534936 64.5980321,93.0083652 65.5407561,92.0581735 C65.6710326,91.9274166 65.8207354,91.8104691 65.9760953,91.7138324 L78.1078405,84.1558765 L72.0852615,84.1542521 L61.5580735,84.9883259 C61.1276023,85.0565455 60.5530813,85.0947178 59.9826204,85.0947178 C53.3321802,85.0947178 47.9188193,79.6516257 47.9188193,72.9668931 C47.9188193,70.2453471 48.7643915,67.6448048 50.3552771,65.4519747 L57.9047333,55.0508452 C58.697711,53.8577934 58.5285966,52.1401007 57.4459451,51.0583434 C56.2281512,49.8409245 54.1154428,49.8409245 52.8976282,51.0583434 Z M118,21 L118,74.5522388 L60,74.5522388 C58.7186994,74.5522388 57.68,73.5097973 57.68,72.2238806 C57.68,70.9379639 58.7186994,69.8955224 60,69.8955224 L113.36,69.8955224 L113.36,25.6567164 L40.28,25.6567164 L40.28,50.1044776 L35.64,54.8637987 L35.64,21 L118,21 Z M78.1685,32.2561567 L78.1685,34.466278 C79.941125,34.6081623 81.333125,35.0447295 82.3445,35.7759795 C84.182375,36.9437966 85.1339375,38.8374067 85.1991875,41.4568097 L80.909,41.4568097 C80.822,40.4854478 80.658875,39.7760261 80.419625,39.3285448 C80.006375,38.5536381 79.256,38.1279851 78.1685,38.0515858 L78.1685,44.2890392 C80.75675,45.1840019 82.49675,45.9752799 83.3885,46.6628731 C84.856625,47.8088619 85.5906875,49.4241604 85.5906875,51.5087687 C85.5906875,54.2591418 84.58475,56.2564366 82.572875,57.500653 C81.344,58.2646455 79.88675,58.7121269 78.201125,58.843097 L78.201125,62.133722 L76.6188125,62.133722 L76.6188125,58.8758396 C74.4764375,58.6357276 72.8778125,58.1664179 71.8229375,57.4679104 C69.9633125,56.2127799 69.0498125,54.0736007 69.0824375,51.0503731 L73.4868125,51.0503731 C73.6390625,52.4255597 73.851125,53.3478078 74.123,53.8171175 C74.547125,54.5483675 75.3790625,55.0231343 76.6188125,55.2414179 L76.6188125,48.2508862 L75.2975,47.8579757 C73.220375,47.2467817 71.7549687,46.3954757 70.9012812,45.3040578 C70.0475937,44.2126399 69.62075,42.8974813 69.62075,41.3585821 C69.62075,40.3435634 69.7865937,39.4213153 70.1182812,38.5918377 C70.4499687,37.7623601 70.914875,37.0474813 71.513,36.4472015 C72.285125,35.6722948 73.14425,35.1375 74.090375,34.8428172 C74.66675,34.6572761 75.5095625,34.5208489 76.6188125,34.4335354 L76.6188125,32.2561567 L78.1685,32.2561567 Z M78.1685,48.7911381 L78.1685,55.1923041 C79.027625,55.0831623 79.6529375,54.8867071 80.0444375,54.6029384 C80.7295625,54.1008862 81.072125,53.233209 81.072125,51.9999067 C81.072125,51.0612873 80.7513125,50.3191231 80.1096875,49.7734142 C79.7290625,49.456903 79.082,49.1294776 78.1685,48.7911381 Z M76.6188125,38.0843284 C75.6726875,38.1061567 74.97125,38.3599114 74.5145,38.8455924 C74.05775,39.3312733 73.829375,39.9943097 73.829375,40.8347015 C73.829375,41.7514925 74.1719375,42.4772854 74.8570625,43.0120802 C75.2376875,43.3067631 75.8249375,43.5796175 76.6188125,43.8306437 L76.6188125,38.0843284 Z M105.231642,30.3134328 C106.517559,30.3134328 107.56,31.3558743 107.56,32.641791 C107.56,33.9277078 106.517559,34.9701493 105.231642,34.9701493 L97.1283582,34.9701493 C95.8424415,34.9701493 94.8,33.9277078 94.8,32.641791 C94.8,31.3558743 95.8424415,30.3134328 97.1283582,30.3134328 L105.231642,30.3134328 Z"/></g></svg>