<svg xmlns="http://www.w3.org/2000/svg" width="106" height="34" viewBox="0 0 106 34"><g fill="none" fill-rule="evenodd"><path fill="#FFF" fill-rule="nonzero" d="M62.1251988 33.9886982C60.1429071 33.8302552 58.1159693 33.3593276 56.1426069 32.589119 55.4729137 32.3250474 54.2049614 31.7176829 53.7227824 31.422803L53.3611481 31.1983421 54.4460509 29.4642723C55.0443101 28.5092135 55.5845293 27.650981 55.6470339 27.5541548L55.7541848 27.3825083 56.4015549 27.6993941C58.0534646 28.5048123 60.1339779 29.2002008 61.7233829 29.4686735 62.3305713 29.5699009 63.4422619 29.5699009 63.8574716 29.4686735 64.665568 29.2706198 65.0941716 28.8613089 65.0941716 28.2847527 65.0941716 27.8314299 64.830759 27.5101428 64.2235705 27.2196641 63.7905023 27.0128081 63.3485049 26.8719699 61.8796446 26.4670602 58.825844 25.6352348 57.2587621 25.0058643 56.0845668 24.1388294 54.8835838 23.2497885 54.1558506 22.140688 53.8835087 20.7895219 53.7897517 20.3185943 53.7986809 18.9938354 53.9013672 18.5229078 54.1469213 17.3962025 54.6246358 16.515964 55.4014798 15.7501565 56.0622437 15.1031812 56.7006845 14.6938703 57.6382548 14.3285714 59.3258815 13.6683925 61.4733641 13.518752 63.9646225 13.8796497 65.7504709 14.1393201 67.5720362 14.6498584 69.2641275 15.3628516 70.023113 15.6797375 70.3267072 15.8337792 70.3088487 15.8777911 70.2999195 15.8953959 69.764165 16.766832 69.1123303 17.8099146 68.1122553 19.4207511 67.915812 19.7112298 67.8399134 19.693625 67.7908026 19.6848226 67.5006022 19.5747928 67.1925434 19.4471582 66.0942467 18.9982366 64.6789619 18.5713209 63.464585 18.3248541 61.2679916 17.8759325 59.6830512 18.2676386 59.6116172 19.2755117 59.5848295 19.6276071 59.6830512 19.8696727 59.9509284 20.1205407 60.343815 20.4814385 60.7634894 20.6354802 62.7725688 21.1636233 64.2994691 21.5641318 65.4245535 21.9206284 66.254973 22.2639214 68.9694625 23.3774231 70.3445657 24.7417928 70.7954924 26.7619401 70.9071079 27.2768796 70.9071079 28.5576267 70.7910278 29.0813686 70.541009 30.2300798 70.0990115 31.057504 69.3087737 31.858521 68.2283354 32.9544179 66.7594752 33.6278004 64.8262944 33.9094767 64.3753677 33.9710934 62.6073778 34.0239077 62.1251988 33.9886982ZM80.6980214 33.9886982C78.7157297 33.8302552 76.6887919 33.3593276 74.7154295 32.589119 74.0457364 32.3250474 72.777784 31.7176829 72.295605 31.422803L71.9339707 31.1983421 73.0188736 29.4642723C73.6171328 28.5092135 74.1573519 27.650981 74.2198566 27.5541548L74.3270075 27.3825083 74.9743775 27.6993941C76.6262872 28.5048123 78.7068005 29.2002008 80.2962055 29.4686735 80.9033939 29.5699009 82.0150845 29.5699009 82.4302943 29.4686735 83.2383906 29.2706198 83.6669942 28.8613089 83.6669942 28.2847527 83.6669942 27.8314299 83.4035816 27.5101428 82.7963932 27.2196641 82.363325 27.0128081 81.9213275 26.8719699 80.4524672 26.4670602 77.3986666 25.6352348 75.8315847 25.0058643 74.6573894 24.1388294 73.4564064 23.2497885 72.7286732 22.140688 72.4563313 20.7895219 72.3625743 20.3185943 72.3715035 18.9938354 72.4741898 18.5229078 72.719744 17.3962025 73.1974584 16.515964 73.9743024 15.7501565 74.6350663 15.1031812 75.2735071 14.6938703 76.2110775 14.3285714 77.8987041 13.6683925 80.0461867 13.518752 82.5374452 13.8796497 84.3232935 14.1393201 86.1448588 14.6498584 87.8369501 15.3628516 88.5959356 15.6797375 88.8995298 15.8337792 88.8816714 15.8777911 88.8727421 15.8953959 88.3369876 16.766832 87.685153 17.8099146 86.6850779 19.4207511 86.4886346 19.7112298 86.412736 19.693625 86.3636252 19.6848226 86.0734249 19.5747928 85.765366 19.4471582 84.6670693 18.9982366 83.2517845 18.5713209 82.0374076 18.3248541 79.8408142 17.8759325 78.2558738 18.2676386 78.1844399 19.2755117 78.1576521 19.6276071 78.2558738 19.8696727 78.523751 20.1205407 78.9166377 20.4814385 79.336312 20.6354802 81.3453914 21.1636233 82.8722917 21.5641318 83.9973762 21.9206284 84.8277956 22.2639214 87.5422851 23.3774231 88.9173883 24.7417928 89.368315 26.7619401 89.4799305 27.2768796 89.4799305 28.5576267 89.3638504 29.0813686 89.1138316 30.2300798 88.6718342 31.057504 87.8815963 31.858521 86.801158 32.9544179 85.3322978 33.6278004 83.399117 33.9094767 82.9481903 33.9710934 81.1802004 34.0239077 80.6980214 33.9886982ZM0 23.8483507 0 13.9896795 4.76821504 13.9896795C10.2730925 13.9896795 10.9159979 14.0204879 12.3089596 14.3241702 15.1529231 14.9491395 16.6083895 16.4631497 16.6083895 18.8089853 16.6083895 19.1654819 16.4967739 19.8872775 16.3806938 20.2613788 16.001201 21.5025151 14.8805812 22.7084418 13.7912137 23.0429325 13.6483459 23.0869444 13.5278011 23.1309563 13.5278011 23.1441599 13.5278011 23.1573635 13.6662043 23.1969742 13.8313953 23.2365849 14.2242819 23.3334112 14.7332487 23.5402672 15.1172061 23.7691292 16.7780451 24.7505952 17.6798985 26.3658328 17.6798985 28.359573 17.6798985 31.0134921 16.2155028 32.6859452 13.2822469 33.3769324 11.9785777 33.6850159 11.4696109 33.7070219 5.34861575 33.7070219L0 33.7070219 0 23.8483507ZM9.34445138 29.5699009C11.1883398 29.4510687 12.0812639 28.8833149 12.2330611 27.7302025 12.2821719 27.3516999 12.2152026 26.8763711 12.0634055 26.5594853 11.7419528 25.8861028 11.0008257 25.4987979 9.7328734 25.3447561 9.52303622 25.3227502 8.49170881 25.3007442 7.42466443 25.3007442L5.49148361 25.3007442 5.49148361 27.4573285 5.49148361 29.6139128 7.08981787 29.6139128C7.96488355 29.6139128 8.9828171 29.5919069 9.34445138 29.5699009ZM9.30873442 21.4056889C10.5231113 21.2120364 11.0990474 20.723504 11.1526228 19.8388644 11.2017336 18.985033 10.7374131 18.4612911 9.7328734 18.2368303 9.2417651 18.1312017 8.41134563 18.0871897 6.86658683 18.0827886L5.49148361 18.0827886 5.49148361 19.7772477 5.49148361 21.4717068 7.20143339 21.4717068C8.48277956 21.4717068 9.0051402 21.454102 9.30873442 21.4056889Z"/><polygon fill="#FFF" fill-rule="nonzero" points="20.002 23.848 20.002 13.99 22.747 13.99 25.493 13.99 25.493 21.56 25.493 29.13 30.069 29.13 34.645 29.13 34.645 31.418 34.645 33.707 27.323 33.707 20.002 33.707"/><polygon fill="#FFF" fill-rule="nonzero" points="36.699 23.848 36.699 13.99 44.177 13.99 51.656 13.99 51.656 16.278 51.656 18.567 46.923 18.567 42.191 18.567 42.191 20.085 42.191 21.604 46.044 21.613 49.892 21.626 49.892 23.848 49.892 26.071 46.044 26.084 42.191 26.093 42.191 27.611 42.191 29.13 47.012 29.13 51.834 29.13 51.834 31.418 51.834 33.707 44.267 33.707 36.699 33.707"/><path fill="#DF50A4" d="M85.4261603,0 C87.5899426,6.25339894 90.5696203,8.3398057 95.7130802,10.1558442 C94.6231815,10.1558442 91.343294,10.008658 85.8734177,9.71428571 C85.5752461,4.42007618 85.4261603,1.18198094 85.4261603,0 Z" transform="matrix(-1 0 0 1 181.14 0)"/><path fill="#B13F82" d="M85.4261603,10.1558442 C87.5899426,16.4092431 90.5696203,18.4956499 95.7130802,20.3116883 C94.6231815,20.3116883 91.343294,20.1645022 85.8734177,19.8701299 C85.5752461,14.5759203 85.4261603,11.3378251 85.4261603,10.1558442 Z" transform="rotate(180 90.57 15.234)"/><path fill="#B13F82" d="M95.7130802,0 C97.8768625,6.25339894 100.85654,8.3398057 106,10.1558442 C104.910101,10.1558442 101.630214,10.008658 96.1603376,9.71428571 C95.862166,4.42007618 95.7130802,1.18198094 95.7130802,0 Z"/><path fill="#DF50A4" d="M95.7130802,10.1558442 C97.8768625,16.4092431 100.85654,18.4956499 106,20.3116883 C104.910101,20.3116883 101.630214,20.1645022 96.1603376,19.8701299 C95.862166,14.5759203 95.7130802,11.3378251 95.7130802,10.1558442 Z" transform="matrix(1 0 0 -1 0 30.468)"/></g></svg>