<svg xmlns="http://www.w3.org/2000/svg" width="237" height="77" viewBox="0 0 237 77"><g fill="none" fill-rule="evenodd"><path fill="#3B2E87" fill-rule="nonzero" d="M138.902567 76.9744047C134.470462 76.6155781 129.938535 75.5490656 125.526395 73.8047694 124.029062 73.206725 121.194112 71.8312229 120.116032 71.1634067L119.307473 70.655069 121.733152 66.7279108C123.070769 64.5649836 124.278617 62.6213393 124.418368 62.4020564L124.657942 62.0133275 126.105363 62.7309808C129.798784 64.5550162 134.450498 66.1298664 138.004167 66.7378782 139.361749 66.9671286 141.847321 66.9671286 142.775668 66.7378782 144.582449 66.2893449 145.540742 65.3623761 145.540742 64.0566459 145.540742 63.030003 144.951791 62.3023823 143.59421 61.6445335 142.625934 61.1760654 141.637695 60.8571084 138.353545 59.940107 131.525708 58.0562672 128.021949 56.630928 125.396626 54.6673489 122.711409 52.6539328 121.084307 50.1421464 120.475392 47.0821526 120.265766 46.0156401 120.28573 43.0154508 120.515321 41.9489383 121.064343 39.3972822 122.13244 37.4038009 123.869346 35.6694722 125.346715 34.2042634 126.774172 33.2772946 128.870438 32.4499999 132.643716 30.9548889 137.445163 30.6159971 143.015241 31.4333244 147.008128 32.0214014 151.080873 33.1776205 154.864134 34.7923404 156.561111 35.5099937 157.239902 35.8588529 157.199973 35.958527 157.180009 35.9983966 155.982142 37.9719431 154.524739 40.3342184 152.288722 43.9822892 151.849504 44.640138 151.679806 44.6002684 151.570002 44.5803336 150.921158 44.3311484 150.232385 44.0420936 147.776759 43.0254182 144.612396 42.0585797 141.897233 41.500405 136.985981 40.4837295 133.442294 41.3708287 133.282578 43.6533648 133.222685 44.4507573 133.442294 44.9989646 134.041227 45.5671068 134.919662 46.3844341 135.85799 46.7332934 140.349989 47.9293822 143.763907 48.8364161 146.279426 49.6437761 148.136119 50.4212338 154.205308 52.9429876 157.279831 56.0328836 158.288035 60.6079232 158.53759 61.7741098 158.53759 64.6746251 158.278053 65.8607464 157.719048 68.4622395 156.730809 70.336112 154.963956 72.1501799 152.548259 74.6320642 149.26411 76.1570774 144.941809 76.7949914 143.933605 76.9345351 139.980647 77.0541439 138.902567 76.9744047ZM180.428595 76.9744047C175.99649 76.6155781 171.464563 75.5490656 167.052423 73.8047694 165.55509 73.206725 162.72014 71.8312229 161.64206 71.1634067L160.833501 70.655069 163.25918 66.7279108C164.596797 64.5649836 165.804645 62.6213393 165.944396 62.4020564L166.18397 62.0133275 167.631391 62.7309808C171.324812 64.5550162 175.976526 66.1298664 179.530195 66.7378782 180.887777 66.9671286 183.373349 66.9671286 184.301696 66.7378782 186.108477 66.2893449 187.06677 65.3623761 187.06677 64.0566459 187.06677 63.030003 186.477819 62.3023823 185.120238 61.6445335 184.151962 61.1760654 183.163723 60.8571084 179.879573 59.940107 173.051736 58.0562672 169.547977 56.630928 166.922654 54.6673489 164.237437 52.6539328 162.610335 50.1421464 162.00142 47.0821526 161.791793 46.0156401 161.811758 43.0154508 162.041349 41.9489383 162.590371 39.3972822 163.658468 37.4038009 165.395374 35.6694722 166.872743 34.2042634 168.3002 33.2772946 170.396466 32.4499999 174.169744 30.9548889 178.971191 30.6159971 184.541269 31.4333244 188.534156 32.0214014 192.606901 33.1776205 196.390162 34.7923404 198.087139 35.5099937 198.76593 35.8588529 198.726001 35.958527 198.706037 35.9983966 197.50817 37.9719431 196.050767 40.3342184 193.81475 43.9822892 193.375532 44.640138 193.205834 44.6002684 193.09603 44.5803336 192.447186 44.3311484 191.758413 44.0420936 189.302787 43.0254182 186.138424 42.0585797 183.42326 41.500405 178.512009 40.4837295 174.968322 41.3708287 174.808606 43.6533648 174.748713 44.4507573 174.968322 44.9989646 175.567255 45.5671068 176.44569 46.3844341 177.384018 46.7332934 181.876017 47.9293822 185.289935 48.8364161 187.805454 49.6437761 189.662147 50.4212338 195.731336 52.9429876 198.805859 56.0328836 199.814063 60.6079232 200.063618 61.7741098 200.063618 64.6746251 199.804081 65.8607464 199.245076 68.4622395 198.256837 70.336112 196.489984 72.1501799 194.074287 74.6320642 190.790138 76.1570774 186.467837 76.7949914 185.459633 76.9345351 181.506675 77.0541439 180.428595 76.9744047ZM0 54.0095001 0 31.6825096 10.6610091 31.6825096C22.9690842 31.6825096 24.4065236 31.7522814 27.5209757 32.4400325 33.8796488 33.8554042 37.1338519 37.284192 37.1338519 42.5968197 37.1338519 43.4041796 36.8842965 45.0388343 36.6247588 45.8860638 35.7762702 48.6968725 33.2707334 51.4279418 30.8350722 52.1854647 30.5156412 52.2851388 30.2461213 52.3848129 30.2461213 52.4147151 30.2461213 52.4446173 30.5555701 52.534324 30.9249122 52.6240306 31.8033474 52.8433136 32.9413202 53.3117817 33.799791 53.8300868 37.5131762 56.0528184 39.5295843 59.7108566 39.5295843 64.2260918 39.5295843 70.2364379 36.2554167 74.0240524 29.6970993 75.5889352 26.7822916 76.2866536 25.6443187 76.3364907 11.9586975 76.3364907L0 76.3364907 0 54.0095001ZM20.8927828 66.9671286C25.015439 66.6980086 27.0118826 65.4122131 27.351278 62.8007526 27.4610824 61.9435557 27.3113491 60.8670758 26.9719537 60.1494225 26.253234 58.6244093 24.5961858 57.7472776 21.7612358 57.3984183 21.2920715 57.3485813 18.9861791 57.2987443 16.600429 57.2987443L12.2781285 57.2987443 12.2781285 62.1827734 12.2781285 67.0668026 15.8517626 67.0668026C17.8082774 67.0668026 20.0842231 67.0169656 20.8927828 66.9671286ZM20.8129251 48.4775895C23.5280884 48.0390236 24.8157946 46.9326415 24.9355812 44.9291928 25.0453856 42.9955159 24.0072349 41.8093946 21.7612358 41.3010568 20.6631918 41.0618391 18.8064992 40.962165 15.3526517 40.9521976L12.2781285 40.9521976 12.2781285 44.7896491 12.2781285 48.6271006 16.101318 48.6271006C18.9662147 48.6271006 20.1341342 48.587231 20.8129251 48.4775895Z"/><polygon fill="#3B2E87" fill-rule="nonzero" points="44.72 54.01 44.72 31.683 50.859 31.683 56.998 31.683 56.998 48.826 56.998 65.97 67.23 65.97 77.462 65.97 77.462 71.153 77.462 76.336 61.091 76.336 44.72 76.336"/><polygon fill="#3B2E87" fill-rule="nonzero" points="82.054 54.01 82.054 31.683 98.774 31.683 115.494 31.683 115.494 36.866 115.494 42.049 104.913 42.049 94.332 42.049 94.332 45.487 94.332 48.926 102.947 48.946 111.551 48.976 111.551 54.01 111.551 59.043 102.947 59.073 94.332 59.093 94.332 62.532 94.332 65.97 105.113 65.97 115.894 65.97 115.894 71.153 115.894 76.336 98.974 76.336 82.054 76.336"/><path fill="#DF50A4" d="M191,0 C195.837891,14.1621094 202.5,18.887207 214,23 C211.563151,23 204.229818,22.6666667 192,22 C191.333333,10.0101725 191,2.67683919 191,0 Z" transform="matrix(-1 0 0 1 405 0)"/><path fill="#B13F82" d="M191,23 C195.837891,37.1621094 202.5,41.887207 214,46 C211.563151,46 204.229818,45.6666667 192,45 C191.333333,33.0101725 191,25.6768392 191,23 Z" transform="rotate(180 202.5 34.5)"/><path fill="#B13F82" d="M214,0 C218.837891,14.1621094 225.5,18.887207 237,23 C234.563151,23 227.229818,22.6666667 215,22 C214.333333,10.0101725 214,2.67683919 214,0 Z"/><path fill="#DF50A4" d="M214,23 C218.837891,37.1621094 225.5,41.887207 237,46 C234.563151,46 227.229818,45.6666667 215,45 C214.333333,33.0101725 214,25.6768392 214,23 Z" transform="matrix(1 0 0 -1 0 69)"/></g></svg>