<svg xmlns="http://www.w3.org/2000/svg" width="120" height="120" viewBox="0 0 120 120"><g fill="none" fill-rule="evenodd"><rect width="120" height="120" fill="#D8D8D8" opacity="0"/><path fill="#FFFFFF" fill-rule="nonzero" d="M86.6067064,23 C93.015968,23 98.2812952,28.2707725 98.2812952,34.6863884 L98.2812952,58.7457154 C97.2513864,58.1727106 96.2215185,57.9433491 95.0765622,57.9433491 C94.160822,57.9433491 93.360068,58.1727106 92.5585577,58.5163539 L92.5585577,34.6861634 C92.5585577,31.4782531 89.9263029,28.7284112 86.6067064,28.7284112 L16.5603998,28.7284112 C13.3548493,28.7284112 10.7227988,31.3632757 10.7227988,34.6861634 L10.7227988,82.5756808 C10.7227988,85.7835911 13.3550536,88.533433 16.6746501,88.533433 L70.9262013,88.533433 C70.8120348,89.4500811 70.9262013,90.251629 71.2695043,91.1682976 C71.7269758,92.428589 72.4143788,93.4594575 73.4443489,94.2618442 L16.5603385,94.2618442 C10.1502593,94.2618442 5,88.9912968 5,82.5756808 L5,34.6861634 C5,28.2705475 10.2653272,23 16.6745888,23 L86.6067064,23 Z M86.720873,35.1442522 C85.6909642,33.8839608 83.8595042,33.769679 82.714548,34.8006089 L51.5828561,61.1513003 L20.565619,34.8006089 C19.3065759,33.769679 17.5899999,33.8839608 16.5592941,35.1442522 C15.5293853,36.4045435 15.6435539,38.1228214 16.902597,39.1545491 L39.1068184,57.9437378 L16.6736875,79.0242909 C15.528813,80.0552208 15.4146444,81.8884965 16.5595209,83.0345879 C17.1319582,83.6075927 17.9327327,83.951236 18.6192976,83.951236 C19.3058626,83.951236 19.9925094,83.7218745 20.5649262,83.1488697 L43.3414213,61.7246119 L49.7506829,67.1093184 C50.3231201,67.5672435 50.8955574,67.796605 51.5821428,67.796605 C52.2687283,67.796605 52.9553546,67.5672435 53.4136028,67.1093184 L59.8228643,61.7246119 L72.1839773,73.2957979 C72.9855489,72.264868 74.0154372,71.4625222 75.2744599,71.004638 C75.9610658,70.7752766 76.6476716,70.4316333 77.3342366,70.2022718 L64.1715317,58.0582447 L86.3757531,39.269056 C87.6347962,38.1230464 87.7489648,36.4048504 86.719056,35.1445999 L86.720873,35.1442522 Z M114.533377,87.5019303 C115.449117,88.8765035 114.990849,90.4804995 113.388503,91.0533407 C111.900346,91.6263454 110.527134,92.1993502 109.039018,92.7715367 C108.695715,92.8858164 108.581546,93.0008982 108.581546,93.3445415 C108.581546,94.9484557 108.46738,96.5524517 108.352412,98.1564068 C108.238245,99.7603211 106.9792,100.791271 105.376793,100.333408 C103.888636,99.8754826 102.28631,99.5310414 100.799012,99.0731163 C100.455709,98.9588365 100.34154,99.0731163 100.112406,99.3024778 C99.1966655,100.562769 98.1667771,101.70882 97.1367865,102.96907 C96.1068777,104.343643 94.5045317,104.343643 93.3597798,102.96907 C92.329871,101.708779 91.4141513,100.562728 90.3841607,99.3024778 C90.1542293,98.9588345 90.0400607,98.9588345 89.6967578,98.9588345 C88.2086008,99.4167596 86.7211387,99.7612008 85.2330225,100.219126 C83.4015626,100.792131 82.0282895,99.4167596 82.0282895,97.927966 C82.0282895,96.4383336 81.914123,94.9493968 81.7991552,93.3456462 C81.7991552,93.0020029 81.6849887,92.8877211 81.3416837,92.7726414 C79.8535267,92.1996366 78.3660646,91.6266319 76.8779485,91.0544454 C75.3897915,90.4814406 74.9323199,88.9926266 75.7330739,87.6171941 C76.5346455,86.2426209 77.4495682,84.8673522 78.3653288,83.6068971 C78.5944631,83.2632538 78.5944631,83.148972 78.3653288,82.8045308 C77.4495886,81.5442395 76.6488346,80.1696663 75.7330739,78.9094158 C74.8173338,77.5348427 75.2756024,76.0452102 76.8779485,75.3580055 C78.3661055,74.7850007 79.8535676,74.2119959 81.3416837,73.6398095 C81.6849866,73.5255297 81.7991552,73.410448 81.7991552,73.0668047 C81.7991552,71.4628905 81.9133218,69.8588944 82.0282895,68.2549393 C82.1424561,66.5367433 83.4015013,65.7344384 85.4621364,66.1931205 C86.4920452,66.5367637 87.9801409,66.880407 89.4684614,67.33913 C89.8117643,67.4534098 90.0408987,67.33913 90.3842016,67.1097685 C91.2999418,65.8494772 92.3298301,64.7034267 93.2455703,63.5583582 C94.2754791,62.183785 95.8778252,62.183785 97.0225771,63.5583582 C98.0524859,64.8186496 98.9682056,65.9647001 99.9981962,67.2249505 C100.22733,67.454312 100.341499,67.5685938 100.684802,67.454312 C102.172959,66.9963869 103.660421,66.6519457 105.262583,66.1940206 C106.864909,65.7360955 108.238202,66.7670254 108.238202,68.3710215 C108.352369,69.9749357 108.467337,71.4645681 108.467337,73.0685232 C108.467337,73.4121665 108.581503,73.5264483 108.924808,73.641528 C110.412965,74.2145328 111.786177,74.7875376 113.274293,75.2454422 C114.990787,75.818447 115.449138,77.422443 114.533336,78.9120345 C113.731765,80.1723259 112.931011,81.5468991 112.015332,82.8071496 C111.786197,83.1507928 111.786197,83.2650746 112.015332,83.6095158 C112.816106,84.8665952 113.617657,86.126948 114.533336,87.5021758 L114.533377,87.5019303 Z M105.262747,75.8157669 C104.347007,74.8991188 102.744742,74.8991188 101.8289,75.8157669 L92.3291557,85.3249295 L88.5521489,81.6583371 C87.6364088,80.7416891 86.0341445,80.7416891 85.1183021,81.6583371 C84.2025619,82.5749852 84.2025619,84.1788381 85.1183021,85.0955884 L90.4976753,90.4802949 C91.4134155,91.396943 93.0156798,91.396943 93.9315222,90.4802949 L105.262747,79.1378362 C106.17769,78.3362678 106.17769,76.7323127 105.262747,75.8157669 Z"/></g></svg>